<?xml version="1.0" encoding="UTF-8" standalone="no"?>
<!DOCTYPE svg PUBLIC "-//W3C//DTD SVG 1.1//EN" "http://www.w3.org/Graphics/SVG/1.1/DTD/svg11.dtd">
<svg width="100%" height="100%" viewBox="0 0 390 844" version="1.1" xmlns="http://www.w3.org/2000/svg" xmlns:xlink="http://www.w3.org/1999/xlink" xml:space="preserve" xmlns:serif="http://www.serif.com/" style="fill-rule:evenodd;clip-rule:evenodd;stroke-linejoin:round;stroke-miterlimit:2;">
    <g id="Tree" transform="matrix(1,0,0,1,20.4562,0)">
        <g transform="matrix(1.01807,0,0,1,15.1201,-21.4935)">
            <rect x="109.688" y="-12.3" width="85.163" height="877.794" style="fill:rgb(178,169,153);"/>
        </g>
        <g transform="matrix(1.32816,0.90271,-0.749284,1.10242,428.83,-250.41)">
            <rect x="20.933" y="595.64" width="123.64" height="34.373" style="fill:rgb(178,169,153);"/>
        </g>
        <g transform="matrix(0.800451,0.599399,-0.599399,0.800451,216.933,-22.6183)">
            <rect x="29.142" y="287.309" width="94.397" height="26.678" style="fill:rgb(178,169,153);"/>
        </g>
        <g transform="matrix(1.24001,0.335396,-0.261096,0.965313,142.656,-139.107)">
            <rect x="17.342" y="474.052" width="125.692" height="40.016" style="fill:rgb(178,169,153);"/>
        </g>
        <g transform="matrix(0.524787,-0.354875,0.340792,0.503961,39.7468,146.52)">
            <rect x="176.894" y="123.14" width="150.318" height="34.886" style="fill:rgb(178,169,153);"/>
        </g>
        <g transform="matrix(1.01759,0.395007,-0.36187,0.932229,116.915,-30.5162)">
            <rect x="15.29" y="160.591" width="91.832" height="29.243" style="fill:rgb(178,169,153);"/>
        </g>
        <g transform="matrix(0.809988,-0.397585,0.440633,0.897687,-82.0323,71.5057)">
            <rect x="157.399" y="292.952" width="161.091" height="34.373" style="fill:rgb(178,169,153);"/>
        </g>
        <g transform="matrix(0.503693,-0.393449,0.451397,0.577878,-84.7279,228.491)">
            <rect x="149.191" y="428.392" width="229.837" height="45.66" style="fill:rgb(178,169,153);"/>
        </g>
        <g transform="matrix(0.820339,-0.60476,0.593389,0.804916,-346.14,146.629)">
            <rect x="154.834" y="652.073" width="204.699" height="45.66" style="fill:rgb(178,169,153);"/>
        </g>
    </g>
</svg>
