<?xml version="1.0" encoding="UTF-8" standalone="no"?>
<!DOCTYPE svg PUBLIC "-//W3C//DTD SVG 1.1//EN" "http://www.w3.org/Graphics/SVG/1.1/DTD/svg11.dtd">
<svg width="100%" height="100%" viewBox="0 0 390 844" version="1.1" xmlns="http://www.w3.org/2000/svg" xmlns:xlink="http://www.w3.org/1999/xlink" xml:space="preserve" xmlns:serif="http://www.serif.com/" style="fill-rule:evenodd;clip-rule:evenodd;stroke-linejoin:round;stroke-miterlimit:2;">
    <g transform="matrix(1.01807,0,0,1,-16.8602,-14.8779)">
        <rect x="109.688" y="-12.3" width="85.163" height="877.794" style="fill:rgb(178,169,153);"/>
    </g>
    <g transform="matrix(1,0,0,1,-3.07818,5.64333)">
        <rect x="20.933" y="595.64" width="123.64" height="34.373" style="fill:rgb(178,169,153);"/>
    </g>
    <rect x="29.142" y="287.309" width="94.397" height="26.678" style="fill:rgb(178,169,153);"/>
    <rect x="17.342" y="474.052" width="125.692" height="40.016" style="fill:rgb(178,169,153);"/>
    <g transform="matrix(1.23549,0,0,1,-47.8141,-33.86)">
        <rect x="176.894" y="123.14" width="150.318" height="34.886" style="fill:rgb(178,169,153);"/>
    </g>
    <rect x="15.29" y="160.591" width="91.832" height="29.243" style="fill:rgb(178,169,153);"/>
    <g transform="matrix(1,0,0,1,7.18241,-13.8518)">
        <rect x="147.652" y="229.337" width="116.971" height="27.704" style="fill:rgb(178,169,153);"/>
    </g>
    <g transform="matrix(1,0,0,1,0.51303,27.1906)">
        <rect x="157.399" y="292.952" width="161.091" height="34.373" style="fill:rgb(178,169,153);"/>
    </g>
    <g transform="matrix(1,0,0,1,-3.59121,-13.3388)">
        <rect x="149.191" y="428.392" width="229.837" height="45.66" style="fill:rgb(178,169,153);"/>
    </g>
    <g transform="matrix(1,0,0,1,14.8779,-9.23453)">
        <rect x="144.574" y="558.702" width="161.604" height="28.73" style="fill:rgb(178,169,153);"/>
    </g>
    <rect x="154.834" y="652.073" width="204.699" height="45.66" style="fill:rgb(178,169,153);"/>
</svg>
